<svg xmlns="http://www.w3.org/2000/svg" width="77.389" height="77.392" viewBox="0 0 77.389 77.392">
  <g id="Grupo_5564" data-name="Grupo 5564" transform="translate(-2561 780)">
    <g id="Grupo_5561" data-name="Grupo 5561" transform="translate(2561.007 -780.056)">
      <path id="Caminho_238" data-name="Caminho 238" d="M128.732,136.783l-3.133,2.458c.2.155.384.3.576.44,8.112,5.981,11.932,14,11.131,24.053a26.014,26.014,0,0,1-22.82,23.428,43.891,43.891,0,0,1-5.789.1,1.687,1.687,0,0,1-1.212-.7c-.455-.768.207-1.564,1.18-1.535,1.263.029,2.527.107,3.787.065a23.936,23.936,0,0,0,22.331-19.584,23.272,23.272,0,0,0-.229-9.449c-1.949,1.1-3.915,2.146-5.2,4.048-1.024,1.519-.768,3.234-.632,4.926a14.132,14.132,0,0,1,.214,4.138,10.435,10.435,0,0,1-7.243,7.851,3.528,3.528,0,0,1-4.83-2.591,18.394,18.394,0,0,1-.6-4.124c-.128-2.735-.075-5.48-.2-8.217-.106-2.32-.361-2.437-2.656-2.151a34.609,34.609,0,0,1-5.443.476,6.638,6.638,0,0,1-6.326-7.776,9.682,9.682,0,0,1,3.428-5.935c.179-.162.365-.316.545-.477.018-.015.022-.046.079-.179a20.51,20.51,0,0,1-9.366-3.557,24,24,0,0,0-7,9.048.747.747,0,0,0,.008.582c.948,1.682,1.95,3.336,2.875,5.029a3.468,3.468,0,0,0,2.366,1.873,9.613,9.613,0,0,1,2.034.759,3.085,3.085,0,0,1,1.764,3.945c-.415,1.324-1.024,2.587-1.565,3.872a11.618,11.618,0,0,1-.59,1.235,4.056,4.056,0,0,0-.02,4.488,10.438,10.438,0,0,1,1.205,6.707.882.882,0,0,0,.48,1.05c1.375.724,2.726,1.494,4.107,2.21.829.43,1.117.952.8,1.642-.3.647-.879.821-1.716.441-9.01-4.1-14.487-10.99-15.781-20.828-1.2-9.139,1.888-16.852,8.7-23.068.079-.072.162-.141.239-.216a1.549,1.549,0,0,0,.128-.161,2.757,2.757,0,0,0-.3-.343,42.826,42.826,0,0,1-10.068-13.169,1.229,1.229,0,0,1,.275-1.663c5.374-4.573,11.241-8.188,18.32-9.435,6.45-1.135,11.969.9,16.84,5.05a1.127,1.127,0,1,1-1.5,1.675,21.613,21.613,0,0,0-6.186-3.732,14.657,14.657,0,0,0-5.358-1.012c.177.279.288.481.423.665q4.455,6.079,8.919,12.155c.165.224.384.512.624.563,3.31.676,6.626,1.315,9.941,1.964l.157-.168q-1.851-2.678-3.7-5.339c-.092-.128-.2-.256-.3-.384-.573-.75-.562-1.372.032-1.823.567-.43,1.171-.3,1.722.4.581.739,1.187,1.466,1.691,2.257a45.064,45.064,0,0,0,3.295,5.237,40.457,40.457,0,0,0,4.658,4.049c.466.4.9.838,1.384,1.294-.113-.846-.239-1.671-.33-2.5a13.8,13.8,0,0,1,5.171-12.86,28.579,28.579,0,0,1,10.809-5.374,1.255,1.255,0,0,1,1.61.678,28.151,28.151,0,0,1,3.71,11.892,13.761,13.761,0,0,1-5.267,11.977,27.99,27.99,0,0,1-9.039,4.835l-.914.311c.1.293.191.56.3.82A32.381,32.381,0,1,1,79.7,168.593a30.863,30.863,0,0,1-.439-12.4c.146-.888.572-1.246,1.328-1.127.72.113,1.033.64.9,1.515A30.047,30.047,0,0,0,101.518,189.7c17.113,5.935,36.033-4.972,39.225-22.774,2.165-12.08-1.83-21.976-11.309-29.7-.166-.136-.347-.256-.523-.375A.856.856,0,0,0,128.732,136.783Zm5.227,16.935c-.029-.1-.055-.2-.09-.3a24.027,24.027,0,0,0-9.722-12.376,1.074,1.074,0,0,0-1.363,0,32.16,32.16,0,0,1-12.6,4.855,1.245,1.245,0,0,0-.512.209c-.687.468-1.373.939-2.039,1.436A9.01,9.01,0,0,0,104.081,152a4.594,4.594,0,0,0,4.527,6.2,16.719,16.719,0,0,0,2.007-.146c1.386-.175,2.761-.425,4.149-.567a2.549,2.549,0,0,1,2.888,1.694,8.179,8.179,0,0,1,.647,2.634c.128,2.687.093,5.374.206,8.052a22.43,22.43,0,0,0,.482,3.82c.247,1.13.961,1.456,2.073,1.194,3.341-.793,6.129-4.9,5.607-8.266-.078-.5-.15-1.009-.23-1.512a8.5,8.5,0,0,1,4.084-9.245C131.66,155.143,132.8,154.442,133.959,153.718Zm-30.718-10.53c1.342.656,4.5.716,6.141.53a27.647,27.647,0,0,0,10.719-3.738c1.99-1.151,3.882-2.463,5.994-3.815-.443-.139-.612-.21-.787-.244-3.028-.594-6.056-1.2-9.092-1.75a1.59,1.59,0,0,0-1.086.289c-3.806,2.757-7.593,5.544-11.387,8.324C103.577,142.905,103.42,143.043,103.241,143.188Zm-15,11.419c-2.643,8.745.586,19.007,6.886,24.181a9.334,9.334,0,0,0-1.465-5.467,3.556,3.556,0,0,1-.357-3.234c.454-1.23,1.011-2.421,1.521-3.628.429-1.011.9-2,1.273-3.037.357-1,.174-1.326-.811-1.746a8.287,8.287,0,0,0-1.364-.485,5.374,5.374,0,0,1-3.74-3.027C89.6,157,88.938,155.869,88.246,154.607Zm6.2-16.55a25.035,25.035,0,0,0,5.48,3.952.975.975,0,0,0,1.215-.12c2.863-2.128,5.749-4.222,8.626-6.335l2.741-2.01a1.27,1.27,0,0,0-.283-.164c-2.866-.563-5.732-1.13-8.6-1.663a1.061,1.061,0,0,0-.738.174C100.082,133.916,97.3,135.966,94.442,138.057Zm18.158-6.935c.024-.12.044-.156.033-.171q-4.395-6.007-8.8-12.005a.759.759,0,0,0-.582-.287,22.271,22.271,0,0,0-5.885,1.686.862.862,0,0,0,.056.219c2.089,2.858,4.175,5.72,6.288,8.561a1.418,1.418,0,0,0,.8.435c1.34.289,2.682.539,4.026.795S111.246,130.867,112.6,131.123Zm41.219,2.776c-2.871,1.184-5.63,2.3-8.362,3.467a1.381,1.381,0,0,0-.559.719q-1.453,3.4-2.863,6.822c-.078.185-.128.384-.209.613,3.909-1.151,8.492-4.069,10.431-7.217A10.748,10.748,0,0,0,153.818,133.9Zm-14.257,10.833a.846.846,0,0,0,.155-.184c1-2.4,2.01-4.79,3-7.192a.869.869,0,0,0,.013-.6c-1.146-2.82-2.312-5.635-3.483-8.476C135.937,131.914,136.685,139.117,139.561,144.732Zm-39.376-13.7-13.122-2.559a41.743,41.743,0,0,0,5.757,7.956Zm49.206-9.6a24.294,24.294,0,0,0-8.233,4.606.608.608,0,0,0-.145.535c.989,2.448,2,4.885,3.082,7.5ZM87.5,125.982l.128.292,13.007,2.532-5.592-7.628Zm58.881,8.526c2.344-.965,4.461-1.882,6.616-2.7.775-.294,1.067-.663.852-1.469-.118-.438-.113-.906-.194-1.354a25.643,25.643,0,0,0-2.175-6.653C149.771,126.4,148.118,130.355,146.381,134.508Z" transform="translate(-78.84 -116.12)" fill="#3c5629"/>
    </g>
  </g>
</svg>
