<svg xmlns="http://www.w3.org/2000/svg" width="22.849" height="22.849" viewBox="0 0 22.849 22.849">
  <g id="Icon_ionic-logo-instagram" data-name="Icon ionic-logo-instagram" transform="translate(-15.94 -6.747)">
    <g id="Grupo_973" data-name="Grupo 973" transform="translate(15.94 6.747)">
      <path id="Caminho_210" data-name="Caminho 210" d="M20.685,6.4a4.774,4.774,0,0,1,4.76,4.76v9.521a4.774,4.774,0,0,1-4.76,4.76H11.164a4.774,4.774,0,0,1-4.76-4.76V11.164a4.774,4.774,0,0,1,4.76-4.76h9.521m0-1.9H11.164A6.684,6.684,0,0,0,4.5,11.164v9.521a6.684,6.684,0,0,0,6.664,6.664h9.521a6.684,6.684,0,0,0,6.664-6.664V11.164A6.684,6.684,0,0,0,20.685,4.5Z" transform="translate(-4.5 -4.5)" fill="#fff"/>
      <path id="Caminho_211" data-name="Caminho 211" d="M25.053,11.856a1.428,1.428,0,1,1,1.428-1.428A1.425,1.425,0,0,1,25.053,11.856Z" transform="translate(-7.44 -5.192)" fill="#fff"/>
      <path id="Caminho_212" data-name="Caminho 212" d="M16.962,13.154a3.808,3.808,0,1,1-3.808,3.808,3.812,3.812,0,0,1,3.808-3.808m0-1.9a5.712,5.712,0,1,0,5.712,5.712,5.714,5.714,0,0,0-5.712-5.712Z" transform="translate(-5.538 -5.538)" fill="#fff"/>
    </g>
  </g>
</svg>
