<svg xmlns="http://www.w3.org/2000/svg" width="74.473" height="77" viewBox="0 0 74.473 77">
  <g id="Grupo_5565" data-name="Grupo 5565" transform="translate(-2563 565)">
    <g id="Grupo_1176" data-name="Grupo 1176" transform="translate(939.351 -1363.371)">
      <path id="Caminho_255" data-name="Caminho 255" d="M1718.672,945.675a21.638,21.638,0,0,0-5.922,7.789,16.6,16.6,0,0,0-1.605,6.579,4.331,4.331,0,0,1-8.656-.139,29.958,29.958,0,0,1,2.569-11.494,36.908,36.908,0,0,1,9.49-13.442c1.128-1.026,2.249-2.059,3.366-3.082a1.759,1.759,0,0,0-1.907-1.278,3.389,3.389,0,0,1-3.271-2.2,3.634,3.634,0,0,1,.542-3.862,2.125,2.125,0,0,0,.36-1.029c.086-.95.012-1.92.162-2.857a7.341,7.341,0,0,1,7-6.129c2.2-.055,4.4-.046,6.6,0a3.689,3.689,0,0,1,3.29,2.105,1.945,1.945,0,0,0,.72.716,3.776,3.776,0,0,1,2.105,3.374c.017.568.011,1.138,0,1.711a4.181,4.181,0,0,0,.68,2.657,3.6,3.6,0,0,1-1.974,5.358c-.213.072-.428.132-.817.263l6.456,2.148c2.449.817,4.891,1.657,7.352,2.433a2.032,2.032,0,0,0,1.307-.068c2.706-1.161,5.4-2.369,8.076-3.574a10.218,10.218,0,0,1,4.5-.988,4.328,4.328,0,0,1,4.112,3.479,4.235,4.235,0,0,1-2.35,4.765q-5.008,2.27-10.06,4.449a13.038,13.038,0,0,1-9.03.274c-1.534-.442-3.1-.79-4.76-1.2.1.283.15.488.234.68,1,2.267,2.025,4.527,3,6.8a.889.889,0,0,0,.982.617c4.342-.022,8.685,0,13.037-.02a8,8,0,0,1,6.036,2.517c2.94,3.027,5.922,6,8.861,9.023.4.412.683.49,1.151.121a18.528,18.528,0,0,1,1.8-1.208,3.152,3.152,0,0,1,4.849,2.861,5.484,5.484,0,0,1-1.542,3.632c-.928.973-1.871,1.933-2.849,2.856a4.4,4.4,0,0,1-6.172.034q-5.181-4.623-10.318-9.3a1.264,1.264,0,0,0-1.308-.344c-2.237.536-4.482,1.007-6.878,1.536.247.2.395.349.568.463,1.266.85,2.517,1.724,3.816,2.528a2.982,2.982,0,0,1,1.28,1.663c1.786,5.064,3.612,10.114,5.4,15.177a.893.893,0,0,0,1.037.736,7.426,7.426,0,0,1,2,.132,3.368,3.368,0,0,1,2.548,2.9,3.272,3.272,0,0,1-1.719,3.383,36.263,36.263,0,0,1-5.253,2.065,5.273,5.273,0,0,1-6.382-3.348c-1.415-3.577-2.858-7.145-4.119-10.777a5.111,5.111,0,0,0-2.945-3.246c-3.192-1.462-6.332-3.045-9.435-4.69-9.343-4.954-14.638-12.714-15.922-23.211A2.286,2.286,0,0,0,1718.672,945.675Zm47.393,21.025,1.8-2.4c-.113-.131-.188-.24-.275-.329q-4.681-4.754-9.365-9.506a5.012,5.012,0,0,0-3.715-1.476q-6.867,0-13.734.017a1.777,1.777,0,0,0-1.034.365c-2.52,2.065-5.015,4.161-7.516,6.248l-3.133,2.612c.758.658,1.408,1.291,2.132,1.825a26.016,26.016,0,0,0,3.332,2.258c4.211,2.194,8.47,4.309,12.722,6.429a2.369,2.369,0,0,1,1.251,1.382c.932,2.49,1.895,4.969,2.849,7.451.479,1.245.965,2.487,1.478,3.816l3.917-1.971a2.689,2.689,0,0,0-.063-.284q-2.722-7.619-5.46-15.234a1.8,1.8,0,0,0-.67-.79q-3.142-2.136-6.316-4.22a1.356,1.356,0,0,1-.779-1.463c.132-.635.608-.89,1.219-1.024q5.3-1.153,10.586-2.357a1.652,1.652,0,0,1,1.632.418c1.1,1.015,2.225,2.012,3.34,3.015Zm-53.079-26.581,3.271,4.343c.887-.747,1.7-1.423,2.5-2.105a1.384,1.384,0,0,1,1.609-.408c.65.309.726.862.736,1.492a26.18,26.18,0,0,0,3.553,13c.79,1.367,1.753,2.641,2.674,4.016l10.861-9.052c-.064-.158-.1-.253-.141-.345q-2.167-4.882-4.342-9.761a1.285,1.285,0,0,1,1.592-1.867c.713.205,1.448.357,2.256.554.152-1.3.279-2.556.454-3.8.072-.511-.108-.721-.584-.875-2.382-.766-4.753-1.567-7.13-2.354-.555-.184-1.112-.363-1.694-.553a17.022,17.022,0,0,1-.166,1.776,8,8,0,0,1-.518,1.693,3.8,3.8,0,0,1-3.76,2.215,3.851,3.851,0,0,1-3.374-2.776c-.113-.395-.177-.807-.276-1.207-.175-.713-.45-.813-.978-.33-1.469,1.344-2.944,2.681-4.382,4.056-.742.712-1.416,1.5-2.162,2.291Zm27.022.488,3.663.911a9.635,9.635,0,0,0,6.291-.508c3.242-1.4,6.468-2.848,9.694-4.287a1.838,1.838,0,0,0,1.128-2.133,1.793,1.793,0,0,0-1.941-1.432,13.152,13.152,0,0,0-3.277.79c-2.929,1.217-5.812,2.542-8.7,3.854a2.215,2.215,0,0,1-1.783.089c-1.5-.534-3.011-1.016-4.606-1.546-.155,1.464-.311,2.838-.47,4.267Zm-25.518,5.651-3.069-4.094a7.707,7.707,0,0,0-.576.8c-1.23,2.261-2.6,4.461-3.631,6.811a25.2,25.2,0,0,0-2.251,9.9,1.858,1.858,0,1,0,3.709.083,18.108,18.108,0,0,1,1.655-6.951,24.977,24.977,0,0,1,4.162-6.544Zm4.12-21.81c0,.921-.012,1.711,0,2.516a4.981,4.981,0,0,0,4.483,4.9,4.866,4.866,0,0,0,5.3-3.961,24.056,24.056,0,0,0,.132-3.779.725.725,0,0,0-.308-.47c-.582-.417-1.184-.8-1.833-1.233C1724.305,924.976,1721.4,924.359,1718.61,924.448Zm12.414-1.895c0-.547.01-1.109,0-1.67a1.242,1.242,0,0,0-1.225-1.4,1.309,1.309,0,0,1-1.261-1.233c-.132-.88-.526-1.247-1.376-1.253-2.095-.012-4.191-.045-6.285.012a4.868,4.868,0,0,0-4.714,5.364,11.763,11.763,0,0,1,1.83-.395c1.161-.064,2.328-.054,3.49-.009a3.541,3.541,0,0,0,3.5-1.829,1.166,1.166,0,0,1,1.792-.425c1.424.916,2.817,1.876,4.257,2.842Zm22.852,65.095a2.727,2.727,0,0,0,2.874,1.258c1.638-.517,3.236-1.176,4.816-1.854a1.153,1.153,0,0,0,.449-.95c-.021-.278-.395-.738-.629-.753a7.727,7.727,0,0,0-2.966.093A42,42,0,0,0,1753.876,987.648Zm14.08-19.321a1.87,1.87,0,0,0,2.895.19,33.913,33.913,0,0,0,2.763-2.808,4.83,4.83,0,0,0,.845-1.93.629.629,0,0,0-.879-.767,21.254,21.254,0,0,0-3.334,2.341A21.523,21.523,0,0,0,1767.956,968.327Zm-44.767-33.886a1.261,1.261,0,0,0,1.333,1.162c.75-.036,1.2-.547,1.324-1.507Zm-7.044-8.745c-.937.225-1.341.716-1.242,1.393a1.079,1.079,0,0,0,1.242.967Zm14.895-.009v2.49c.815-.162,1.255-.582,1.211-1.338C1732.212,926.171,1731.8,925.788,1731.04,925.686Z" transform="translate(-78.84 -116.12)" fill="#3c5629"/>
      <path id="Caminho_256" data-name="Caminho 256" d="M1815.88,1464.867v-2.817h32.034v2.817Z" transform="translate(-178.831 -592.502)" fill="#3c5629"/>
      <path id="Caminho_257" data-name="Caminho 257" d="M2154.377,1380.03c-.643-.774-1.224-1.467-1.858-2.236l4.566-3.833c-1.112.173-1.967.245-2.788.449a2.292,2.292,0,0,1-2.2-.513c-.578-.486-1.207-.911-2.013-1.513.138.694.231,1.171.352,1.784l-2.8.717c-.5-2.034-1.052-4.027-1.45-6.04a1.908,1.908,0,0,1,.655-1.369,1.254,1.254,0,0,1,1.68.079c1.513,1.126,3.04,2.235,4.522,3.407a2.027,2.027,0,0,0,1.766.418c2.3-.415,4.614-.792,6.921-1.186a1.487,1.487,0,0,1,1.767.785,1.422,1.422,0,0,1-.49,1.858C2160.162,1375.219,2157.3,1377.59,2154.377,1380.03Z" transform="translate(-466.994 -512.329)" fill="#3c5629"/>
      <path id="Caminho_258" data-name="Caminho 258" d="M1844.16,1389.418v-2.808h17.453v2.808Z" transform="translate(-202.689 -528.745)" fill="#3c5629"/>
      <path id="Caminho_259" data-name="Caminho 259" d="M1900.79,1427.141v-2.811h15.952v2.811Z" transform="translate(-252.074 -560.624)" fill="#3c5629"/>
      <path id="Caminho_260" data-name="Caminho 260" d="M1806.45,1389.539v-2.8h2.816v2.8Z" transform="translate(-169.201 -528.855)" fill="#3c5629"/>
    </g>
  </g>
</svg>
