<svg xmlns="http://www.w3.org/2000/svg" width="22.489" height="22.489" viewBox="0 0 22.489 22.489">
  <path id="Icon_metro-facebook" data-name="Icon metro-facebook" d="M21.312,1.928H6.318A3.748,3.748,0,0,0,2.571,5.677V20.668a3.748,3.748,0,0,0,3.748,3.749h7.5V14.578H11V11.767h2.811V9.659a3.514,3.514,0,0,1,3.514-3.514h3.514V8.956H17.329a.7.7,0,0,0-.7.7v2.108h3.865l-.7,2.811H16.626v9.839h4.686a3.748,3.748,0,0,0,3.748-3.749V5.677a3.748,3.748,0,0,0-3.748-3.749Z" transform="translate(-2.571 -1.928)" fill="#fff"/>
</svg>
