<svg xmlns="http://www.w3.org/2000/svg" width="72.2" height="77" viewBox="0 0 72.2 77">
  <g id="Grupo_5566" data-name="Grupo 5566" transform="translate(-2291 564)">
    <g id="Grupo_1171" data-name="Grupo 1171" transform="translate(1424.908 -1412.49)">
      <path id="Caminho_239" data-name="Caminho 239" d="M1206.113,964.61a5.926,5.926,0,0,1,3.65,3.219,3.424,3.424,0,0,1,3.64-.813,4.548,4.548,0,0,1,2.511,2.826c2.7-.881,4.057-.207,5.465,2.724a3.326,3.326,0,0,1,3.819.428,5.527,5.527,0,0,1,1.806,3.582c.176,0,.342.011.506,0a3.382,3.382,0,0,1,3.123,1.484,5.914,5.914,0,0,1,.619,6.214,3.476,3.476,0,0,1-6.369.385,18.631,18.631,0,0,1-1.028-2.5c-2.246.263-3.556-1.071-4.4-3.061-2.5.906-4.232-.155-5.388-2.695a3.542,3.542,0,0,1-4.473-1.037c-.162.209-.309.393-.447.577a4.277,4.277,0,0,1-6.636.538,7.984,7.984,0,0,1-.656-10.039,5.706,5.706,0,0,1,2.783-1.829Zm2.225,6.724a5.394,5.394,0,0,0-1.392-3.721,2.021,2.021,0,0,0-3.216.046,5.7,5.7,0,0,0,.38,7.288,2.049,2.049,0,0,0,3.21-.294A5.326,5.326,0,0,0,1208.338,971.334Zm16.62,6.03a4.523,4.523,0,0,0-1.06-2.559,1.112,1.112,0,0,0-1.794.043,3.739,3.739,0,0,0,.237,4.731,1.09,1.09,0,0,0,1.82-.2,12.7,12.7,0,0,0,.8-2.015Zm1.045,3.91.184.085a3.305,3.305,0,0,0,1.016,2.662,1.1,1.1,0,0,0,1.687-.125,3.8,3.8,0,0,0-.241-4.745,1.062,1.062,0,0,0-1.724.111,12.184,12.184,0,0,0-.922,2.008Zm-6.412-6.625a4.51,4.51,0,0,0-1.064-2.566,1.136,1.136,0,0,0-1.752-.022,3.723,3.723,0,0,0,.241,4.83,1.072,1.072,0,0,0,1.719-.189,13.222,13.222,0,0,0,.855-2.056Zm-5.541-2.319a4,4,0,0,0-.928-2.883,1.123,1.123,0,0,0-1.8.023,3.748,3.748,0,0,0,.22,4.728,1.1,1.1,0,0,0,1.824-.189A8.826,8.826,0,0,0,1214.051,972.33Z" transform="translate(-293.562 -116.12)" fill="#3c5629"/>
      <path id="Caminho_240" data-name="Caminho 240" d="M972.128,964.61c5.427,1.6,5.053,9.2,2.192,11.828a4.328,4.328,0,0,1-6.744-.558c-.116-.155-.227-.309-.274-.379a9.73,9.73,0,0,1-2.2,1.164,9.527,9.527,0,0,1-2.511-.08,4.8,4.8,0,0,1-1.981,2.395,3.465,3.465,0,0,1-3.247.1c-1.532,2.638-2.387,3.214-4.572,3.064-.057.25-.116.507-.173.773a4.907,4.907,0,0,1-1.642,2.814,3.3,3.3,0,0,1-4.753-.342,5.988,5.988,0,0,1,.339-7.822,3.57,3.57,0,0,1,3.169-.937A5.67,5.67,0,0,1,951.562,973a3.273,3.273,0,0,1,3.827-.4,5.013,5.013,0,0,1,2.081-2.71,3.365,3.365,0,0,1,3.313-.023c1.347-3.137,3.865-3.913,6.218-2.067a5.932,5.932,0,0,1,3.644-3.183Zm2.039,6.319a5.065,5.065,0,0,0-.928-3.027,2.132,2.132,0,0,0-3.613-.1,5.96,5.96,0,0,0-.331,6.648,2.117,2.117,0,0,0,3.556.309,5.581,5.581,0,0,0,1.313-3.834Zm-22.352,6.464a12.157,12.157,0,0,0,.762,1.951,1.112,1.112,0,0,0,1.871.206,3.756,3.756,0,0,0,.235-4.679,1.126,1.126,0,0,0-1.846-.042A4.48,4.48,0,0,0,951.815,977.393Zm-1.237,4.051.193-.088a12.253,12.253,0,0,0-.928-2.087,1.072,1.072,0,0,0-1.775-.077,3.841,3.841,0,0,0-.255,4.638,1.137,1.137,0,0,0,1.846.1,3.354,3.354,0,0,0,.915-2.488Zm6.609-6.828a12.739,12.739,0,0,0,.773,2.01,1.127,1.127,0,0,0,1.879.178,3.81,3.81,0,0,0,.25-4.624,1.155,1.155,0,0,0-1.9-.062,4.5,4.5,0,0,0-1.006,2.5Zm5.382-2.729a14.4,14.4,0,0,0,.841,2.141,1.078,1.078,0,0,0,1.769.2,3.726,3.726,0,0,0,.238-4.777,1.114,1.114,0,0,0-1.745-.036,4.589,4.589,0,0,0-1.1,2.474Z" transform="translate(-78.84 -116.12)" fill="#3c5629"/>
      <path id="Caminho_241" data-name="Caminho 241" d="M1220.96,1107.455a45.225,45.225,0,0,1,2.871-15.223,28.083,28.083,0,0,0,1.586-7.409,12.164,12.164,0,0,0-2.65-8.76,22.84,22.84,0,0,0-12.33-8.3c-4.725-1.263-8.375,1-9.408,5.795a8.8,8.8,0,0,0,1.419,7.093c1.546,2.256,3.08,4.513,4.564,6.8a19.271,19.271,0,0,1,3.318,12.018,14.63,14.63,0,0,1-1.991,6.725c-.583.969-1.183,1.93-1.753,2.907a10.185,10.185,0,0,0-1.135,7.964,8.175,8.175,0,0,0,8.4,5.949,7.684,7.684,0,0,0,7.112-7.553c.02-.444.009-.887.042-1.33a1.112,1.112,0,0,1,1.143-1.183c.651.015,1.051.464,1.065,1.237.054,3.2-.694,6.138-3.149,8.361a9.563,9.563,0,0,1-10.079,2.141,9.955,9.955,0,0,1-6.882-8.057,12.408,12.408,0,0,1,1.661-8.8c.325-.551.652-1.1,1-1.634,3-4.572,3.12-9.416,1.053-14.3a46.07,46.07,0,0,0-3.547-6.109c-.928-1.484-2.01-2.863-2.922-4.351-2.517-4.108-2.319-8.255.173-12.262a8.614,8.614,0,0,1,9.665-3.737,23.988,23.988,0,0,1,15.461,10.977,14.022,14.022,0,0,1,1.732,10.529,60.062,60.062,0,0,1-1.868,7.112,44.38,44.38,0,0,0-2.346,14.648c0,.3.022.592,0,.886a1.1,1.1,0,0,1-1.082,1.1,1.073,1.073,0,0,1-1.124-1.112C1220.933,1108.9,1220.96,1108.169,1220.96,1107.455Z" transform="translate(-292.011 -199.813)" fill="#3c5629"/>
      <path id="Caminho_242" data-name="Caminho 242" d="M966.254,1110.088a42.289,42.289,0,0,0-1.2-11.894c-.444-1.736-1.017-3.44-1.58-5.144a34.062,34.062,0,0,1-1.679-7.992,14.326,14.326,0,0,1,3-10.1,24.823,24.823,0,0,1,13.825-9.287c5.526-1.416,10.108,1.223,11.718,6.7a10.814,10.814,0,0,1-1.422,9.448c-1.527,2.293-3.092,4.559-4.6,6.869a17.322,17.322,0,0,0-3.013,10.748,13.645,13.645,0,0,0,2.18,6.576c.659,1.037,1.262,2.11,1.838,3.2a1.111,1.111,0,0,1-.447,1.684c-.611.272-1.13.009-1.538-.73-.487-.883-.966-1.772-1.512-2.618-3.633-5.628-3.584-11.46-.844-17.361a45.678,45.678,0,0,1,3.109-5.179c.965-1.515,2.032-2.964,3.013-4.468a8.8,8.8,0,0,0,.142-9.767,6.526,6.526,0,0,0-7.421-3.108,22.619,22.619,0,0,0-13.4,8.813,12.333,12.333,0,0,0-2.157,10.438c.6,2.755,1.359,5.484,2.208,8.174a44.242,44.242,0,0,1,2,13.374c0,2.364-.068,4.729.009,7.09a7.677,7.677,0,0,0,8.187,7.59,8.269,8.269,0,0,0,7.6-7.624,9,9,0,0,1,.083-1.1,1.009,1.009,0,0,1,1.15-.908.992.992,0,0,1,1.008,1.057,10.362,10.362,0,0,1-8.658,10.651,9.877,9.877,0,0,1-11.6-9.7C966.208,1113.928,966.254,1112.327,966.254,1110.088Z" transform="translate(-93.057 -199.92)" fill="#3c5629"/>
    </g>
  </g>
</svg>
