<svg xmlns="http://www.w3.org/2000/svg" width="77.104" height="77.239" viewBox="0 0 77.104 77.239">
  <g id="Grupo_5567" data-name="Grupo 5567" transform="translate(-2033 565)">
    <g id="Grupo_1172" data-name="Grupo 1172" transform="translate(1946.277 -1479.201)">
      <path id="Caminho_249" data-name="Caminho 249" d="M378.635,1215.48v-32.223a4.888,4.888,0,0,1,.148-1.349,2.535,2.535,0,0,1,2.733-1.768,2.578,2.578,0,0,1,2.247,2.363c.019.32,0,.645,0,.965v31.791l.174.056c.836-.995,1.676-1.985,2.509-2.982l7.48-8.946a2.528,2.528,0,0,1,2.812-.874,2.421,2.421,0,0,1,1.768,2.086,2.839,2.839,0,0,1-.842,2.335q-4.647,5.538-9.277,11.1c-1.65,1.974-3.289,3.955-4.952,5.919-1.407,1.663-3.051,1.624-4.458-.045q-7.089-8.421-14.207-16.826a2.55,2.55,0,0,1,3.167-3.936,3.693,3.693,0,0,1,.814.76q4.582,5.388,9.152,10.787Z" transform="translate(-234.711 -233.738)" fill="#3c5629"/>
      <path id="Caminho_250" data-name="Caminho 250" d="M185.4,1040.044v32.622a2.609,2.609,0,0,1-2.6,2.7,2.565,2.565,0,0,1-2.546-2.724q-.013-13.547,0-27.09v-5.281l-.161-.09c-.264.312-.531.619-.793.93q-4.569,5.463-9.133,10.911a2.556,2.556,0,0,1-3.248.707,2.475,2.475,0,0,1-1.272-2.851,3.221,3.221,0,0,1,.627-1.188q7.193-8.649,14.42-17.275a2.555,2.555,0,0,1,4.2,0q7.128,8.445,14.258,16.888a2.565,2.565,0,1,1-3.9,3.291q-4.6-5.427-9.2-10.849C185.89,1040.549,185.707,1040.373,185.4,1040.044Z" transform="translate(-78.84 -116.12)" fill="#3c5629"/>
      <path id="Caminho_251" data-name="Caminho 251" d="M436.926,1099.738c0,1.5.011,3.008,0,4.5a2.531,2.531,0,0,1-2.563,2.692,2.558,2.558,0,0,1-2.578-2.7q-.03-4.58,0-9.156a2.57,2.57,0,1,1,5.134.007C436.937,1096.632,436.926,1098.185,436.926,1099.738Z" transform="translate(-287.857 -164.847)" fill="#3c5629"/>
      <path id="Caminho_252" data-name="Caminho 252" d="M233.912,1267.342v-4.58a2.57,2.57,0,1,1,5.135.006q.028,4.576,0,9.156a2.571,2.571,0,1,1-5.137,0v-4.578Z" transform="translate(-132.504 -296.511)" fill="#3c5629"/>
      <path id="Caminho_253" data-name="Caminho 253" d="M436.864,1034.954c0,.617.011,1.233,0,1.848a2.576,2.576,0,0,1-2.419,2.61,2.526,2.526,0,0,1-2.685-2.335,34.347,34.347,0,0,1,0-4.335,2.509,2.509,0,0,1,2.688-2.327,2.575,2.575,0,0,1,2.417,2.61C436.875,1033.667,436.864,1034.312,436.864,1034.954Z" transform="translate(-287.795 -116.188)" fill="#3c5629"/>
      <path id="Caminho_254" data-name="Caminho 254" d="M233.944,1352.282c0-.67-.022-1.341,0-2.009a2.552,2.552,0,0,1,2.249-2.438,2.39,2.39,0,0,1,2.741,1.933,26.947,26.947,0,0,1,0,5.115,2.379,2.379,0,0,1-2.662,1.934,2.578,2.578,0,0,1-2.329-2.449C233.91,1353.677,233.944,1352.978,233.944,1352.282Z" transform="translate(-132.519 -365.408)" fill="#3c5629"/>
    </g>
  </g>
</svg>
