<svg xmlns="http://www.w3.org/2000/svg" width="77.104" height="68.552" viewBox="0 0 77.104 68.552">
  <g id="Grupo_5562" data-name="Grupo 5562" transform="translate(-2033 759)">
    <path id="Icon_awesome-leaf" data-name="Icon awesome-leaf" d="M73.118,1.3a2.082,2.082,0,0,0-3.789-.161A22.957,22.957,0,0,1,49.262,12.853H38.552a25.71,25.71,0,0,0-25.7,25.7,26.47,26.47,0,0,0,.2,2.744C21.59,35.183,33.92,29.989,51.4,29.989a2.142,2.142,0,1,1,0,4.284C17.748,34.273,3.477,54.9.318,62.654a4.29,4.29,0,0,0,7.939,3.253,35.221,35.221,0,0,1,9.626-12.129A25.647,25.647,0,0,0,41.3,64.114c21.018-1.526,35.811-20.376,35.811-43.455A48.682,48.682,0,0,0,73.118,1.3Z" transform="translate(2032.996 -758.998)" fill="#3c5629"/>
  </g>
</svg>
