<svg xmlns="http://www.w3.org/2000/svg" width="79.815" height="77.919" viewBox="0 0 79.815 77.919">
  <g id="Grupo_5563" data-name="Grupo 5563" transform="translate(-2294 764)">
    <g id="Grupo_1174" data-name="Grupo 1174" transform="translate(1489.477 -765.007)">
      <path id="Caminho_234" data-name="Caminho 234" d="M1184.546,409.265c-.751,2.888-2.618,5.211-3.977,7.781-.5.938-1.035,1.858-1.6,2.759a7.28,7.28,0,0,1-6.477,3.637c-5.063.022-10.126,0-15.189,0h-.971v2.331c0,.779.012,1.558-.008,2.331a1.558,1.558,0,0,1-2.594,1.152,5.109,5.109,0,0,1-.4-.374l-12.616-12.616c-1.072-1.074-1.077-1.783-.014-2.847q6.308-6.308,12.6-12.616a1.774,1.774,0,0,1,2.064-.657c.847.352.974,1.116.96,1.945-.022,1.474,0,2.948,0,4.466h8.956c-.137-.274-.256-.512-.388-.741q-2.079-3.607-4.163-7.209c-.713-1.234-.509-2,.717-2.7q5.558-3.212,11.119-6.419c1.336-.771,2.012-.584,2.8.773,2.66,4.6,5.34,9.2,7.954,13.824a24.071,24.071,0,0,1,1.222,2.994Zm-40.591,5.418,9.254,9.266v-1.462c0-1.7.464-2.15,2.194-2.15,5.609,0,11.217-.014,16.826.007a4.559,4.559,0,0,0,4.273-2.46c1.4-2.457,2.826-4.9,4.237-7.348.137-.233.239-.483.4-.8h-25.988c-1.384,0-1.92-.549-1.932-1.939V405.45Zm29.239-21.953-9.188,5.308c1.624,2.811,3.2,5.554,4.806,8.272.111.189.52.283.791.284,3.247.019,6.493.012,9.736.012h1.859Z" transform="translate(-300.208 -350.739)" fill="#3c5629"/>
      <path id="Caminho_235" data-name="Caminho 235" d="M892.5,326.883c-1.275-.736-2.468-1.451-3.694-2.13a1.681,1.681,0,0,1-1.086-1.783c.119-.857.736-1.182,1.484-1.382q8.676-2.316,17.351-4.641c1.384-.37,2.046.007,2.418,1.391q2.341,8.709,4.662,17.425a2.469,2.469,0,0,1,.092,1.067,1.524,1.524,0,0,1-2.331.95c-1.16-.634-2.294-1.316-3.441-1.976-.265-.154-.533-.3-.869-.484l-4.47,7.742c.389.019.657.045.926.045h8.178c1.547,0,2.057.517,2.057,2.057v12.852c0,1.4-.527,1.954-1.92,1.957q-8.14.012-16.28,0a7.439,7.439,0,0,1-6.833-3.985q-2.112-3.678-4.24-7.346a7.439,7.439,0,0,1-.007-7.906C887.143,336.149,889.792,331.57,892.5,326.883Zm.791-3.154c.664.387,1.13.661,1.6.932,1.452.837,1.626,1.5.776,2.973-2.8,4.853-5.589,9.713-8.412,14.554a4.588,4.588,0,0,0,0,5c1.426,2.412,2.807,4.85,4.211,7.275.137.236.3.459.5.76.2-.339.35-.577.491-.823l12.537-21.7a1.636,1.636,0,0,1,2.59-.708c.672.376,1.338.765,2.156,1.234l-3.479-12.974ZM910.6,356.8V346.272a3.354,3.354,0,0,0-.354-.044c-2.985,0-5.971-.018-8.955.019a1.153,1.153,0,0,0-.808.531c-1.854,3.154-3.675,6.322-5.5,9.489a5.615,5.615,0,0,0-.233.536Z" transform="translate(-78.84 -288.424)" fill="#3c5629"/>
      <path id="Caminho_236" data-name="Caminho 236" d="M1076.374,150.173c1.152-4.295,2.3-8.564,3.476-12.971-.742.424-1.344.78-1.957,1.115a1.563,1.563,0,0,1-2.381-.618q-1.053-1.773-2.057-3.575a1.557,1.557,0,1,1,2.695-1.54c.459.75.889,1.518,1.371,2.344,1.234-.713,2.455-1.391,3.646-2.1a1.716,1.716,0,0,1,2.093-.107,1.693,1.693,0,0,1,.484,2.036q-2.355,8.711-4.682,17.429a1.6,1.6,0,0,1-2.265,1.329q-8.828-2.361-17.656-4.73a1.557,1.557,0,0,1-1.318-1.348,1.538,1.538,0,0,1,.909-1.646c1.371-.78,2.743-1.582,4.188-2.423l-4.486-7.779c-.181.285-.32.487-.442.7q-2.1,3.639-4.206,7.279c-.706,1.219-1.434,1.425-2.638.732q-5.665-3.262-11.323-6.541a1.613,1.613,0,0,1-.669-2.54q4.114-7.15,8.258-14.286a7.273,7.273,0,0,1,6.632-3.781c2.987-.018,5.975-.03,8.962,0a7.232,7.232,0,0,1,5.75,2.8,1.567,1.567,0,1,1-2.4,1.976,4.51,4.51,0,0,0-3.689-1.674c-2.83.016-5.662,0-8.494,0h-.935c.195.377.319.643.465.9l12.342,21.369c.927,1.6.765,2.2-.841,3.129-.557.321-1.111.646-1.8,1.048Zm-25.908-28.315-7.988,13.832,9.188,5.3c1.562-2.7,3.066-5.336,4.61-7.947a1.079,1.079,0,0,0-.023-1.257c-1.783-3.046-3.538-6.106-5.3-9.162C1050.825,122.4,1050.681,122.2,1050.465,121.858Z" transform="translate(-212.96 -116.12)" fill="#3c5629"/>
      <path id="Caminho_237" data-name="Caminho 237" d="M1265.6,182.071a1.509,1.509,0,0,1-1.529-1.525,1.551,1.551,0,0,1,1.509-1.566,1.6,1.6,0,0,1,1.588,1.584A1.551,1.551,0,0,1,1265.6,182.071Z" transform="translate(-407.34 -169.491)" fill="#3c5629"/>
    </g>
  </g>
</svg>
