<svg id="Grupo_1178" data-name="Grupo 1178" xmlns="http://www.w3.org/2000/svg" xmlns:xlink="http://www.w3.org/1999/xlink" width="220.14" height="59.094" viewBox="0 0 220.14 59.094">
  <defs>
    <clipPath id="clip-path">
      <rect id="Retângulo_123" data-name="Retângulo 123" width="220.14" height="59.094" fill="#fff"/>
    </clipPath>
  </defs>
  <g id="Grupo_1166" data-name="Grupo 1166" transform="translate(0 0)">
    <g id="Grupo_1165" data-name="Grupo 1165" clip-path="url(#clip-path)">
      <path id="Caminho_231" data-name="Caminho 231" d="M481.8,152.247c-1.057,1.925-2.968,2.312-5.056,2.307-2.146,0-4.3.065-6.437-.056s-2.7-1.069-2.013-3.069c1-2.9,2.031-5.784,3.056-8.672,1.054-2.971,2.13-5.933,3.162-8.911a1,1,0,0,1,1.135-.792c1.508.042,3.017.012,4.525.016.252,0,.5.031.934.06-1.126,3.143-2.217,6.176-3.3,9.212s-2.165,6.093-3.287,9.252h7.017a.8.8,0,0,0-.005-.314c-1.27-2.678.177-6.807,4-8.042a16.1,16.1,0,0,1,4.765-.792c10.327-.069,20.655-.035,30.983-.033.278,0,.555.023.98.042l-3.334,9.232H520.4c1.712,0,3.424.018,5.134-.019.28-.006.724-.191.805-.4.733-1.913,1.4-3.851,2.152-5.954h-2.929c.423-1.042.745-1.895,1.126-2.72.075-.161.371-.262.583-.312a10.565,10.565,0,0,0,7.194-6.047,1.451,1.451,0,0,1,1.617-.959c.712.072,1.438.015,2.376.015l-2.469,7.093h4.436a3.021,3.021,0,0,1-1.859,2.29,13.61,13.61,0,0,1-2.95.578c-.431.058-.743.072-.911.576-.6,1.811-1.256,3.6-1.885,5.407a1.731,1.731,0,0,0-.027.395H542.1a5.535,5.535,0,0,1-.139-4.444,6.96,6.96,0,0,1,5.079-4.218,18.283,18.283,0,0,1,9.789.074,3.162,3.162,0,0,1,1.341,5.712,1.133,1.133,0,0,1-.59.332c-1.847.026-3.7.015-5.753.015L553.7,145.3c-1.262,0-2.394-.014-3.525.02-.129,0-.306.258-.365.429-.446,1.283-.907,2.564-1.287,3.867-.329,1.126.12,1.785,1.277,1.989a7.056,7.056,0,0,0,1.214.076c4.119.005,8.239-.012,12.358.019a1.049,1.049,0,0,0,1.2-.807c.557-1.643,1.163-3.27,1.782-4.891.193-.507.1-.76-.406-1.012a3.263,3.263,0,0,1-.5-5.552,7.969,7.969,0,0,1,4.923-1.406c.715-.029,1.432,0,2.322,0-.278.842-.5,1.516-.723,2.189-.218.653-.439,1.3-.716,2.125H581.1l-3.254,9.343h5.417c.953,0,1.762.1,2.439-1.032.8-1.344,2.4-1.308,3.784-.87a17.908,17.908,0,0,1,3.231,1.472c.668.371.947.208,1.266-.4.772-1.472.219-2.78-.443-4.362-1.324,2-3.145,2.093-5.22,1.724a5.926,5.926,0,0,1,.455-.55c1.145-1.067,2.283-2.141,3.453-3.18.4-.357.546-.639.261-1.172a1.982,1.982,0,0,1,.467-2.7c1.117-1,2.067-2.19,3.136-3.251a1.249,1.249,0,0,1,.962-.285,2.666,2.666,0,0,1,2.031,4.058,2.089,2.089,0,0,0-.04,1.8c.578,1.6,1.144,3.212,1.6,4.85a3.658,3.658,0,0,1-1,3.894h7.041a3.206,3.206,0,0,1-2.76,2.645,9.708,9.708,0,0,1-1.982.224q-6.527.029-13.055,0a5.831,5.831,0,0,1-2.051-.3,11.517,11.517,0,0,1-1.947-1.257c-1.4,1.662-3.5,1.6-5.606,1.57-1.392-.022-2.785,0-4.178-.006a6.76,6.76,0,0,1-.867-.051c-2.074-.276-2.815-1.446-2.151-3.417.49-1.452,1.008-2.894,1.51-4.342.149-.429.287-.862.486-1.46-1.254,0-2.4-.028-3.538.029-.175.009-.389.382-.487.625-.544,1.34-1.055,2.693-1.582,4.039a2.168,2.168,0,0,1-2.5,1.689,1.736,1.736,0,0,0-1.852.983,4.1,4.1,0,0,1-3.813,1.864c-4.318,0-8.638-.041-12.952-.207a6.593,6.593,0,0,1-5.1-2.416c-.283.436-.495.835-.774,1.18a4.666,4.666,0,0,1-3.85,1.467c-2.958.055-5.918.039-8.877.007-1.268-.014-2.475-.236-2.807-1.95-1.261,1.814-3.04,1.966-4.864,1.958-2.2-.01-4.408-.006-6.609-.094-1.269-.05-1.639-.378-2.282-1.608-.246.21-.474.4-.693.595a6.054,6.054,0,0,1-6.273.945,4.073,4.073,0,0,1-2.34-3.425,7.276,7.276,0,0,1,1.751-5.615h-7.57c2.6,3.779-.226,8.331-4.871,9.2a12.992,12.992,0,0,1-7.358-.5,22.972,22.972,0,0,1-3.043-1.8m11.021-6.969c-1.348,0-2.553-.025-3.755.027-.183.008-.425.345-.514.578-.464,1.215-.9,2.442-1.324,3.671-.481,1.384.089,2.263,1.557,2.421.288.031.58.023.867.06a.853.853,0,0,0,1.068-.731c.178-.668.468-1.305.7-1.96.453-1.3.9-2.6,1.4-4.066m22-.009c-1.315,0-2.44-.012-3.564.014a.587.587,0,0,0-.448.3c-.433,1.437-.906,2.869-1.194,4.337a1.555,1.555,0,0,0,.694,1.311,7.37,7.37,0,0,0,2.166.357c.053.006.153-.165.19-.268.7-1.952,1.393-3.905,2.156-6.05" transform="translate(-386.543 -109.89)" fill="#fff"/>
      <path id="Caminho_232" data-name="Caminho 232" d="M16.155,12.939c-1.807-1.854-3.1-3.76-5.4-4.837A23.71,23.71,0,0,0,2.9,6.146c-.486-.049-.968-.126-1.5-.2-.015-.262-.029-.485-.044-.742a2.117,2.117,0,0,1,.3-.141c2.859-.848,5.711-1.719,8.585-2.514a2.837,2.837,0,0,1,1.586.119c1.94.676,3.874,1.38,5.769,2.173a7.452,7.452,0,0,1,1.865,1.3,14.1,14.1,0,0,1,1.267,1.4l.3-.1a24.688,24.688,0,0,0-.7-2.543A9.116,9.116,0,0,0,19.25,3.02c-.334-.479-.315-.82.126-1.113,2.664,1.23,4.816,2.9,5.339,6.03l.261-.049a17.849,17.849,0,0,0,.091-2.825c-.174-1.46-.546-2.9-.795-4.348C24.236.5,24.411.24,24.489,0c.223.093.514.126.659.288.884,1,1.744,2.015,2.59,3.044a1.924,1.924,0,0,1,.495.882c.2,1.74.336,3.486.492,5.231.01.112,0,.225,0,.49,1.158-.652,2.2-1.311,3.312-1.836a5.107,5.107,0,0,1,2.026-.51c1.708-.031,3.419.043,5.126.136a2.436,2.436,0,0,1,1.265.437c1.552,1.164,3.06,2.386,4.629,3.622l-.272.785c-2.093-.271-4.134-.513-6.167-.809a3.434,3.434,0,0,0-2.405.414C34.856,13,33.41,13.721,31.961,14.5c2.286.12,4.488.206,6.684.377a2.031,2.031,0,0,1,1.1.645c1.5,1.494,2.976,3.007,4.418,4.553A3.708,3.708,0,0,1,44.9,21.4c.4,1.176.681,2.392,1.094,3.562a.791.791,0,0,1-.531,1.17c-1.64-1.238-3.28-2.524-4.977-3.731a11.667,11.667,0,0,0-2.345-1.258c-1.1-.448-2.268-.715-3.36-1.174a6.151,6.151,0,0,0-3.795-.365,1.974,1.974,0,0,0,.092.519c1.13,2.449,1.057,5.122,1.424,7.71a2.175,2.175,0,0,1-.322,1.276c-.794,1.378-1.64,2.727-2.5,4.066-.112.174-.487.356-.625.291a.773.773,0,0,1-.33-.635c.138-1.439.376-2.87.478-4.311a3.946,3.946,0,0,0-.306-1.737,35.027,35.027,0,0,0-1.663-3.432,23.527,23.527,0,0,0-1.5-2.124c-.257.358-.4.525-.508.713-1.287,2.23-2.681,4.409-3.809,6.716a25.358,25.358,0,0,0-1.366,4.454c-.528,1.923-.956,3.874-1.529,5.782-.474,1.575.326,2.935.571,4.386.036.213.4.385.639.546Q30.263,51.054,40.8,58.275c.022.015.03.049.06.1-.106.657-.408.841-1.125.651-8.592-2.278-17.2-4.514-25.786-6.8a3.52,3.52,0,0,1-1.6-.941C8.267,46.9,4.219,42.471.161,38.055A2.489,2.489,0,0,1,0,37.834l.446-.706L13.1,40.26c.092-.1.162-.146.161-.187-.022-2.566,1.2-4.773,2.039-7.092.059-.163.131-.322.182-.487a24.413,24.413,0,0,1,5.678-9.99c.155-.16.277-.353.559-.717-2.115.637-4.01,1.229-5.918,1.774a5.405,5.405,0,0,0-2.374,1.35c-1.223,1.192-2.516,2.313-3.815,3.5l-.738-.487c.931-1.891,1.556-4.023,2.867-5.578a9.848,9.848,0,0,1,5.292-3.7c-1.415-.52-2.621-.869-3.74-1.4-1.27-.6-2.447-.082-3.653.085a19.658,19.658,0,0,0-6.96,2.03c-.219.121-.621-.088-1.082-.169,1.04-1.417,1.881-2.631,2.8-3.78a2.8,2.8,0,0,1,1.229-.843,63.515,63.515,0,0,1,6.215-1.933,11.663,11.663,0,0,1,3.256.159c.258.018.514.069,1.057.146M35.006,56.874l.047-.125c-.244-.124-.483-.26-.733-.369-3.763-1.649-7.566-3.215-11.277-4.972a12.637,12.637,0,0,0-6.188-1.318,1.709,1.709,0,0,1-1.58-.785,16.955,16.955,0,0,0-5.3-4.9c-2.18-1.289-4.253-2.76-6.373-4.151a1.614,1.614,0,0,0,.425.722c2.939,3.2,5.867,6.408,8.837,9.577a3.365,3.365,0,0,0,1.5.894c4.329,1.176,8.672,2.3,13.012,3.435q3.811,1,7.623,1.991m.631-.868.076-.145L19.586,44.778a37.275,37.275,0,0,0,.676,3.843,1.3,1.3,0,0,0,.875,1.047C24.8,51.25,28.448,52.857,32.1,54.456l3.536,1.55m-22.4-14.819L3.083,38.669l-.063.144,9.964,6.558.25-4.183m6.342,8.1-2.032-8.863-1.706.5c.2,2.625.375,5.157.6,7.686a.9.9,0,0,0,.559.645c.8.077,1.606.031,2.576.031m-.507-20.212L16.034,39.885c1.249.08,1.682-.577,1.843-1.585.109-.681.336-1.343.51-2.014.6-2.31,1.2-4.621,1.806-6.982l-1.125-.227M17.562,8.107a18.138,18.138,0,0,0,.185-1.83.816.816,0,0,0-.363-.639c-1.933-.766-3.883-1.489-5.829-2.224l-.258.158c.246.555.338,1.365.764,1.621,1.731,1.039,3.564,1.909,5.5,2.914M15.247,39.35a.623.623,0,0,0,.1-.148q1.448-5.068,2.881-10.14a2.3,2.3,0,0,0-.043-.735c-1.254,2.7-2.244,5.432-3.381,8.1a2.36,2.36,0,0,0,.447,2.919M42.3,19.541l.091-.135c-1.1-1.13-2.2-2.263-3.307-3.382a.587.587,0,0,0-.452-.176c-1.2.3-2.4.638-3.591.964l.028.188ZM15.332,48.085l.237-.049c-.2-2.435-.378-4.873-.635-7.3-.044-.417-.432-.8-.769-1.386-.142,2.287-.277,4.307-.379,6.328a1.341,1.341,0,0,0,.246.784c.4.563.862,1.086,1.3,1.625M33.608,18.727,39.394,20.7l.384-1.186L33.8,17.426l-.194,1.3M14.762,9.2l-.052.2,6.058,3.926.143-.166C19.943,11.92,18.979,10.679,18,9.45a.661.661,0,0,0-.432-.241c-.934-.022-1.87-.011-2.8-.011M24.976,20.606l-.2-.112-5.315,7.754c.754.346,1.129.175,1.481-.467,1.189-2.173,2.454-4.3,3.685-6.454.132-.231.233-.48.348-.721m7.588-10.357L37.8,8.791c-.136-.271-.214-.326-.293-.329-.9-.025-1.8-.053-2.694-.058-1.654-.01-1.654,0-2.272,1.556a1.568,1.568,0,0,0,.019.288M24.082,17.27l.157-.293c-.556-.367-1.117-1.054-1.667-1.044-1.93.032-3.855.3-5.782.484l0,.111,7.29.743m7.843-8.192c-.851.475-1.6.892-2.353,1.314-1.172.659-1.391,1.185-1.044,2.6,1.265-1.164,2.919-1.923,3.4-3.914M30,27.135c.21-.371.458-.613.41-.753-.541-1.564-1.128-3.113-1.729-4.739l-1.024.674L30,27.135M12.807,14.553l.1-.25c-.421-.272-.921-.85-1.25-.765-1.829.47-3.616,1.1-5.418,1.677l.046.216,6.525-.877M10.8,4.925,10.544,3.3,5.415,4.8l.029.122Zm6.177,17.459,6.141-1.926-.082-.251c-2.247-.065-4.437.044-6.059,2.176m8.27-5.291,2.6-6.7c-1.566,1.31-3.24,5.772-2.6,6.7m10.125-5.359-.079-.183L31.995,11.4c-.041.763-.076,1.417-.119,2.232l3.492-1.9M13.334,13.3l-.142.315c.369.283.715.77,1.11.814,1.717.19,3.449.251,5.176.358l.048-.293L13.334,13.3M19.2,18.96l-.043.266a3.016,3.016,0,0,0,.946.282c1.326-.065,2.648-.216,3.973-.286.681-.036.742-.346.555-.9L19.2,18.96m7.623-.117.02.17,4.692-.336c-2.153-1.489-2.153-1.489-4.067-.26-.217.139-.43.284-.645.425m-.257-8.732c1.628-1.594,1.775-2.479.923-4.742l-.257-.041-.666,4.784M31,16.316c1.8.475,3.439-.176,5.091-.728-1.721.028-3.569-.9-5.091.728M12.312,6.3c.851,2.253,1.242,2.449,3.712,1.938L12.312,6.3M41.826,20.424l2.843,3.447c-.2-2.41-.84-3.194-2.843-3.447m-10.493,6.06.195-.033a24.959,24.959,0,0,1-.271-2.565,1.811,1.811,0,0,0-1.547-1.868l1.623,4.466m-3.1-5.526c-.947-1.25-1.226-1.344-2.922-.8l1.665,1.66.252-.23,1.006-.627M8.923,6.426l2.981,1.4.108-.152-.965-1.9-2.123.66M17.345,20.3c-1.614-.572-2.456-.189-4.1,1.847l4.1-1.847m-1.571-9.237c.944,1.881,2.464,2.5,4.419,2.864l-4.419-2.864m10.962,5.5,3.212-1.836c-1.547-.625-1.968-.39-3.212,1.836m-8.167-9.5c-.26,1.491.69,3.223,2.247,4.4l-2.247-4.4M42.084,10.68l.071-.16a16.769,16.769,0,0,1-1.61-1.3c-.681-.7-1.253-.573-1.951.112l3.49,1.35M23.717,12.889c.444-.984-.69-3.362-1.837-3.822l1.837,3.822M22.1,22.949l-.15-.118c-1.068,1.329-2.148,2.648-3.192,4-.135.174-.081.495-.115.747l.248.056L22.1,22.949m-6.122-5.693a6.167,6.167,0,0,0,5.232.558l-5.232-.558m15.082-5.3-2.025,1.688,2.025.243Zm9.531,8.264-.281.04c.016.333-.1.816.072.973.711.638,1.511,1.175,2.279,1.75l.109-.13ZM28.2,19.812l2.428,1.764c-.486-2.053-.486-2.053-2.428-1.764m9.558-8.97,2.927.369.041-.175-2.875-1.1-.093.9M22,5.839c-.574,1.077-.322,1.983.516,2.342L22,5.839m12.7,4.673c0,.056-.009.112-.013.168l2.22.144c.028-.318.05-.573.081-.929l-2.289.617M26.252,5.94l-.295-.017q-.2,2.246-.4,4.492l.178.017.521-4.492M30.913,17.3l1.927,1.042c.034-.409.058-.7.086-1.042ZM13.3,15.911l3.06-.316-.033-.239c-.931.231-2-.524-3.027.555m9.73-9.325.429,2c.693-.4.485-1.365-.429-2m1.353,2.652-.326.026c-.626.719.307,1.217.326,1.844l.323-.052-.324-1.818M6.265,16.654l.111.25,2.147-.738c-.787.063-1.741-.39-2.258.487M30.6,29.818l.284.055c-.073-.678,1.161-1.04.325-2.078L30.6,29.818M26.75,4.547l.308-.07c.435-.825-.544-1.078-.95-1.565l.641,1.635" transform="translate(0 -0.001)" fill="#fff"/>
      <path id="Caminho_233" data-name="Caminho 233" d="M325.8,125.245c-.115,1.656-.88,2.564-2.362,2.764a27.628,27.628,0,0,1-3.469.171.967.967,0,0,0-1.075.744,44.068,44.068,0,0,1-1.873,4.754c-1.29,2.609-3.627,3.669-6.415,3.716-4.03.069-8.063.021-12.094.018a3.307,3.307,0,0,1-.521-.1c.573-1.43.995-2.9,2.327-3.7a3.728,3.728,0,0,1,2.218-.4c2.415.291,4.815.713,7.216,1.115.522.087.812-.034.99-.547q2.852-8.191,5.723-16.376a3.814,3.814,0,0,0,.1-.414c-.1-.066-.163-.154-.231-.154-3.565.016-7.134-.045-10.694.1a5.434,5.434,0,0,0-4.573,2.623,5.962,5.962,0,0,0-.672,2.541c-.039.469.371.977.579,1.467l.3-.066c.122-.244.251-.485.366-.733a5.02,5.02,0,0,1,7.25-2,3.992,3.992,0,0,1,1.89,4.009,3.764,3.764,0,0,1-2.642,3.272,9.106,9.106,0,0,1-8.809-1.323c-2-1.49-2.475-3.638-2.176-5.978.454-3.56,2.6-5.822,5.781-7.232a16.208,16.208,0,0,1,6.622-1.2c7.28-.02,14.56-.007,21.84,0,.2,0,.39.033.8.069a18.579,18.579,0,0,0-1.377,2.278,3.189,3.189,0,0,1-3.838,2.178,16.381,16.381,0,0,0-3.214-.01.942.942,0,0,0-.719.42c-.953,2.6-1.86,5.213-2.841,8Z" transform="translate(-245.356 -92.754)" fill="#fff"/>
    </g>
  </g>
</svg>
